<?xml version="1.0" encoding="utf-8"?>
<!-- Generator: Adobe Illustrator 16.0.0, SVG Export Plug-In . SVG Version: 6.00 Build 0)  -->
<!DOCTYPE svg PUBLIC "-//W3C//DTD SVG 1.1//EN" "http://www.w3.org/Graphics/SVG/1.1/DTD/svg11.dtd">
<svg version="1.1" xmlns="http://www.w3.org/2000/svg" xmlns:xlink="http://www.w3.org/1999/xlink" x="0px" y="0px" width="180px"
	 height="180px" viewBox="0 0 180 180" enable-background="new 0 0 180 180" xml:space="preserve">
<g id="logo">
</g>
<g id="text">
	<g>
		<path fill="#E5007E" d="M44.708,51.839c4.867-4.285,10.314-7.801,16.256-10.485c0.134,0.017,0.27,0.032,0.401,0.05
			c0.181,0.021,0.357,0.043,0.537,0.068c0.23,0.029,0.462,0.06,0.694,0.092c0.18,0.024,0.36,0.049,0.539,0.073
			c0.235,0.034,0.469,0.069,0.704,0.101c0.183,0.027,0.362,0.054,0.543,0.08c0.237,0.037,0.479,0.072,0.719,0.109
			c0.182,0.029,0.363,0.058,0.548,0.088c0.242,0.037,0.487,0.076,0.731,0.116c0.18,0.031,0.358,0.059,0.538,0.091
			c0.252,0.042,0.505,0.085,0.759,0.129c0.176,0.031,0.357,0.064,0.535,0.094c0.255,0.046,0.511,0.093,0.769,0.141
			c0.179,0.034,0.357,0.066,0.54,0.1c0.26,0.05,0.521,0.099,0.782,0.151c0.177,0.035,0.355,0.068,0.533,0.104
			c0.267,0.052,0.536,0.109,0.804,0.162c0.175,0.04,0.351,0.076,0.529,0.111c0.273,0.057,0.542,0.116,0.815,0.174
			c0.177,0.038,0.354,0.076,0.532,0.115c0.278,0.063,0.559,0.125,0.84,0.189c0.17,0.039,0.341,0.078,0.511,0.116
			c0.289,0.066,0.575,0.136,0.864,0.205c0.168,0.04,0.338,0.08,0.508,0.122c0.291,0.069,0.584,0.142,0.877,0.215
			c0.167,0.042,0.335,0.082,0.504,0.124c0.295,0.078,0.597,0.155,0.895,0.232c0.166,0.044,0.333,0.084,0.499,0.13
			c0.304,0.08,0.608,0.163,0.914,0.245c0.163,0.045,0.325,0.088,0.488,0.134c0.313,0.087,0.626,0.174,0.939,0.263
			c0.16,0.046,0.314,0.089,0.47,0.135c0.322,0.093,0.645,0.188,0.97,0.284c0.154,0.043,0.304,0.088,0.454,0.133
			c0.33,0.099,0.657,0.201,0.986,0.301c0.149,0.045,0.299,0.092,0.45,0.138c0.337,0.104,0.674,0.213,1.012,0.322
			c0.143,0.044,0.286,0.089,0.429,0.135c0.346,0.115,0.691,0.229,1.04,0.345c0.135,0.045,0.274,0.09,0.413,0.136
			c0.352,0.121,0.708,0.243,1.063,0.366c0.131,0.045,0.265,0.089,0.399,0.135c0.359,0.128,0.724,0.257,1.086,0.388
			c0.128,0.046,0.255,0.09,0.381,0.137c0.369,0.132,0.738,0.271,1.109,0.409c0.123,0.045,0.247,0.09,0.37,0.136
			c0.378,0.142,0.757,0.288,1.137,0.437c0.114,0.045,0.229,0.086,0.345,0.131c0.388,0.152,0.779,0.31,1.169,0.464
			c0.107,0.045,0.215,0.085,0.323,0.128c0.401,0.163,0.806,0.328,1.208,0.498c0.097,0.039,0.192,0.079,0.289,0.117
			c0.413,0.173,0.824,0.348,1.238,0.528c0.088,0.037,0.177,0.075,0.264,0.111c0.425,0.184,0.846,0.371,1.271,0.559
			c0.081,0.036,0.161,0.071,0.24,0.106c0.436,0.197,0.871,0.394,1.307,0.594c0.071,0.032,0.14,0.063,0.208,0.095
			c0.455,0.21,0.911,0.426,1.37,0.642c0.048,0.024,0.1,0.049,0.148,0.071c0.476,0.227,0.954,0.46,1.432,0.694
			c0.028,0.018,0.059,0.031,0.092,0.046c0.499,0.246,1.001,0.496,1.5,0.753c0.011,0.003,0.018,0.008,0.029,0.013
			c6.655,3.39,13.41,7.532,20.118,12.583c0.057,0.042,0.115,0.088,0.171,0.13c0.457,0.346,0.913,0.693,1.369,1.046
			c0.09,0.071,0.18,0.145,0.27,0.211c0.421,0.33,0.844,0.66,1.266,0.998c0.119,0.093,0.239,0.19,0.36,0.287
			c0.39,0.314,0.781,0.628,1.174,0.951c0.141,0.117,0.284,0.238,0.427,0.354c0.366,0.305,0.735,0.608,1.102,0.919
			c0.162,0.136,0.325,0.276,0.483,0.415c0.351,0.295,0.697,0.591,1.043,0.894c0.178,0.152,0.356,0.309,0.534,0.464
			c0.33,0.291,0.66,0.578,0.986,0.874c0.197,0.172,0.387,0.349,0.582,0.522c0.311,0.282,0.625,0.564,0.938,0.85
			c0.205,0.189,0.412,0.381,0.615,0.572c0.301,0.279,0.602,0.556,0.9,0.837c0.213,0.202,0.428,0.411,0.641,0.614
			c0.291,0.277,0.578,0.553,0.867,0.833c0.223,0.215,0.441,0.43,0.662,0.649c0.279,0.274,0.561,0.55,0.842,0.831
			c0.229,0.227,0.453,0.457,0.682,0.687c0.273,0.274,0.545,0.551,0.818,0.83c0.232,0.24,0.465,0.483,0.695,0.725
			c0.27,0.274,0.529,0.548,0.793,0.828c0.244,0.251,0.48,0.509,0.723,0.765c0.254,0.272,0.508,0.546,0.766,0.822
			c0.244,0.266,0.486,0.536,0.729,0.804c0.252,0.273,0.502,0.545,0.748,0.824c0.248,0.274,0.494,0.557,0.742,0.835
			c0.244,0.277,0.486,0.552,0.727,0.829c0.254,0.288,0.502,0.578,0.75,0.869c0.24,0.277,0.477,0.555,0.717,0.835
			c0.254,0.298,0.508,0.603,0.758,0.904c0.232,0.279,0.463,0.555,0.691,0.834c0.258,0.311,0.514,0.627,0.771,0.943
			c0.229,0.279,0.453,0.557,0.678,0.838c0.26,0.32,0.514,0.648,0.771,0.973c0.168,0.213,0.336,0.426,0.502,0.639
			c0.021,0.227,0.041,0.455,0.059,0.682c-27.304-33.495-65.905-42.595-94.071-44.219C54.876,51.759,49.769,51.687,44.708,51.839z"/>
		<path fill="#FCEA0D" d="M143.792,126.689L143.792,126.689c1.219,0.072,2.443,0.127,3.672,0.172c0.297,0.01,0.59,0.025,0.887,0.033
			c0.299,0.014,0.596,0.027,0.895,0.035c-0.623,1.5-1.307,2.988-2.049,4.455c-0.289-0.031-0.58-0.064-0.869-0.098
			c-0.232-0.029-0.463-0.057-0.693-0.082c-2.738-0.336-5.6-0.75-8.668-1.258l0,0c-2.732-0.447-5.23-0.912-7.639-1.412l0,0
			c-1.403-0.291-2.764-0.602-3.793-0.836h-0.004c-2.228-0.514-4.46-1.07-6.638-1.656c-0.001,0-0.001,0-0.001,0
			c-2.464-0.66-4.942-1.387-7.365-2.152h-0.001c-1.931-0.604-3.827-1.238-5.642-1.875l0,0l0,0c-0.655-0.234-1.299-0.467-1.937-0.697
			c0.729-0.197,1.459-0.398,2.187-0.611c0.31,0.082,0.624,0.16,0.933,0.242c0.364,0.096,0.728,0.189,1.093,0.285
			c0.396,0.102,0.796,0.199,1.195,0.299c0.368,0.088,0.732,0.18,1.097,0.27c0.403,0.096,0.806,0.188,1.208,0.283
			c0.367,0.084,0.733,0.174,1.1,0.258c0.407,0.092,0.815,0.18,1.224,0.27c0.364,0.08,0.731,0.158,1.096,0.238
			c0.41,0.09,0.822,0.172,1.235,0.258c0.366,0.074,0.733,0.152,1.099,0.225c0.414,0.082,0.829,0.162,1.241,0.242
			c0.369,0.07,0.737,0.143,1.108,0.211c0.414,0.078,0.834,0.15,1.251,0.225c0.367,0.064,0.736,0.137,1.104,0.197
			c0.422,0.076,0.843,0.143,1.265,0.211c0.369,0.059,0.737,0.127,1.105,0.186c0.425,0.066,0.852,0.131,1.276,0.197
			c0.369,0.053,0.735,0.113,1.104,0.166c0.432,0.063,0.866,0.121,1.297,0.182c0.364,0.051,0.728,0.104,1.092,0.152
			c0.436,0.057,0.878,0.115,1.314,0.17c0.364,0.045,0.725,0.094,1.089,0.135c0.443,0.055,0.89,0.102,1.333,0.154
			c0.361,0.039,0.717,0.084,1.077,0.123c0.471,0.049,0.941,0.096,1.41,0.145c0.336,0.035,0.67,0.07,1.006,0.102
			c0.494,0.049,0.992,0.088,1.49,0.131c0.313,0.029,0.627,0.059,0.939,0.084c0.527,0.047,1.061,0.082,1.59,0.125
			c0.283,0.02,0.564,0.041,0.846,0.061C142.164,126.59,142.978,126.643,143.792,126.689
			C143.792,126.691,143.792,126.691,143.792,126.689z"/>
		<path fill="#E25AAB" d="M141.089,141.191c-0.018-0.084-0.041-0.17-0.059-0.244c-0.223-0.971-0.455-1.941-0.703-2.926
			c-0.033-0.137-0.068-0.275-0.104-0.41c-0.254-0.996-0.52-1.996-0.793-3.006c-0.012-0.049-0.025-0.092-0.037-0.145
			c1.963,0.303,3.852,0.557,5.682,0.785C143.863,137.289,142.531,139.277,141.089,141.191z"/>
		<path fill="#E5007E" d="M124.92,153.844c0.002-0.029,0.008-0.057,0.011-0.084c0.167-1.107,0.319-2.225,0.464-3.354
			c0.046-0.357,0.089-0.717,0.135-1.076c0.103-0.832,0.202-1.674,0.295-2.514c0.043-0.391,0.087-0.777,0.129-1.168
			c0.099-0.936,0.188-1.881,0.278-2.834c0.022-0.264,0.049-0.531,0.074-0.799c0.108-1.211,0.203-2.436,0.292-3.672
			c0.02-0.301,0.038-0.604,0.057-0.904c0.065-0.955,0.126-1.92,0.179-2.891c0.022-0.406,0.042-0.813,0.063-1.221
			c0.019-0.381,0.042-0.758,0.06-1.137c0.086,0.02,0.174,0.039,0.264,0.055c0.855,7.533,1.243,14.836,1.142,21.75
			c-1.255,0.953-2.558,1.869-3.896,2.74C124.623,155.783,124.775,154.818,124.92,153.844z"/>
		<path fill="#E5007E" d="M120.084,159.35c-3.062,1.67-6.268,3.088-9.577,4.254c0.022-0.064,0.046-0.133,0.07-0.197
			c0.077-0.205,0.152-0.416,0.229-0.625c0.173-0.479,0.348-0.959,0.522-1.447c0.087-0.248,0.178-0.498,0.265-0.748
			c0.159-0.461,0.32-0.92,0.481-1.385c0.087-0.256,0.174-0.512,0.261-0.77c0.166-0.486,0.329-0.977,0.491-1.469
			c0.075-0.227,0.153-0.457,0.228-0.691c0.207-0.637,0.411-1.281,0.618-1.928c0.025-0.084,0.057-0.172,0.083-0.258
			c0.229-0.734,0.458-1.479,0.684-2.227c0.063-0.215,0.129-0.436,0.193-0.646c0.157-0.531,0.318-1.072,0.476-1.607
			c0.081-0.277,0.16-0.559,0.241-0.838c0.14-0.49,0.28-0.98,0.417-1.477c0.082-0.297,0.165-0.59,0.247-0.885
			c0.138-0.496,0.271-0.998,0.406-1.502c0.079-0.285,0.156-0.568,0.231-0.854c0.158-0.59,0.31-1.186,0.466-1.787
			c0.051-0.191,0.102-0.383,0.151-0.58c0.201-0.783,0.398-1.57,0.59-2.367c0.064-0.256,0.125-0.521,0.189-0.781
			c0.134-0.547,0.266-1.096,0.396-1.646c0.077-0.328,0.152-0.66,0.23-0.99c0.114-0.494,0.228-0.986,0.339-1.482
			c0.079-0.348,0.159-0.697,0.236-1.047c0.109-0.494,0.219-0.992,0.325-1.49c0.076-0.342,0.15-0.689,0.223-1.037
			c0.027-0.113,0.051-0.223,0.075-0.336c1.08,0.281,2.171,0.553,3.266,0.813C122.712,141.426,121.688,150.84,120.084,159.35z"/>
		<path fill="#D60B51" d="M105.794,165.066c-0.161,0.047-0.319,0.088-0.478,0.133c-2.083-2.283-4.064-4.707-6.01-7.375
			c0.028-0.055,0.06-0.121,0.09-0.178c0.5-0.969,0.997-1.953,1.492-2.945c0.08-0.16,0.161-0.318,0.239-0.484
			c0.494-1.002,0.984-2.012,1.472-3.035c0.066-0.148,0.137-0.295,0.204-0.443c0.501-1.053,0.998-2.127,1.491-3.213
			c0.035-0.08,0.07-0.158,0.105-0.234c0.504-1.107,1.002-2.23,1.496-3.367c0.023-0.049,0.044-0.1,0.067-0.15
			c0.492-1.127,0.977-2.273,1.457-3.422c0.064-0.148,0.124-0.293,0.185-0.434c0.463-1.115,0.92-2.242,1.374-3.375
			c0.076-0.184,0.15-0.369,0.223-0.555c0.449-1.127,0.895-2.262,1.334-3.41c0.073-0.188,0.146-0.377,0.215-0.564
			c0.447-1.166,0.886-2.336,1.324-3.52c0.018-0.053,0.04-0.109,0.058-0.156c1.328,0.402,2.666,0.793,4.005,1.168
			C113.329,142.777,109.852,154.725,105.794,165.066z"/>
		<path fill="#00973A" d="M100.903,166.189c-4.66,0.871-9.426,1.229-14.221,1.076c-6.155-12.848-9.27-27.15-9.265-42.57
			c0.844,0.002,1.695-0.004,2.544-0.02c0.009,0.035,0.022,0.08,0.031,0.115c0.161,0.662,0.333,1.322,0.509,1.984
			c1.685,6.395,3.881,12.455,6.576,18.148c0.301,0.641,0.608,1.27,0.917,1.893c0.07,0.141,0.142,0.283,0.212,0.422
			c0.004,0.01,0.009,0.021,0.014,0.029c0.002,0,0.002,0.006,0.002,0.008c0.328,0.646,0.667,1.287,1.015,1.932
			c0.174,0.326,0.352,0.65,0.532,0.979c0.108,0.197,0.222,0.398,0.336,0.6c2.894,5.164,6.233,9.99,10.012,14.471
			c0.101,0.121,0.201,0.242,0.305,0.363C100.584,165.803,100.739,166.002,100.903,166.189z"/>
		<path fill="#39A935" d="M73.588,126.533c0.009,0.602,0.022,1.199,0.041,1.801c0.013,0.42,0.027,0.84,0.044,1.258
			c0.027,0.6,0.059,1.195,0.092,1.787c0.022,0.408,0.046,0.818,0.075,1.223c0.042,0.623,0.093,1.242,0.145,1.857
			c0.033,0.373,0.061,0.746,0.097,1.119c0.069,0.719,0.149,1.432,0.232,2.15c0.031,0.262,0.056,0.525,0.087,0.791
			c0.121,0.967,0.252,1.934,0.4,2.893c0.037,0.252,0.083,0.496,0.121,0.748c0.113,0.711,0.231,1.424,0.356,2.127
			c0.066,0.363,0.139,0.715,0.208,1.072c0.114,0.596,0.228,1.189,0.351,1.779c0.082,0.387,0.167,0.768,0.254,1.15
			c0.124,0.564,0.251,1.123,0.385,1.678c0.094,0.393,0.189,0.779,0.289,1.164c0.139,0.553,0.282,1.102,0.432,1.646
			c0.102,0.381,0.207,0.764,0.315,1.145c0.159,0.551,0.324,1.105,0.491,1.656c0.109,0.365,0.219,0.729,0.333,1.092
			c0.186,0.582,0.381,1.164,0.577,1.744c0.108,0.32,0.212,0.641,0.323,0.959c0.25,0.717,0.513,1.432,0.779,2.139
			c0.066,0.174,0.128,0.355,0.194,0.527c0.34,0.883,0.691,1.766,1.054,2.637c0.101,0.234,0.205,0.469,0.307,0.705
			c0.23,0.541,0.459,1.082,0.7,1.621c-5.101-0.504-10.107-1.594-14.926-3.248c-0.038-0.25-0.078-0.502-0.11-0.752
			c-0.052-0.371-0.103-0.74-0.151-1.105c-0.058-0.471-0.114-0.939-0.167-1.408c-0.04-0.369-0.084-0.736-0.119-1.107
			c-0.049-0.475-0.091-0.949-0.13-1.424c-0.031-0.367-0.063-0.729-0.09-1.094c-0.033-0.484-0.062-0.975-0.088-1.463
			c-0.022-0.355-0.044-0.709-0.061-1.066c-0.024-0.506-0.037-1.018-0.053-1.521c-0.007-0.336-0.021-0.672-0.029-1.01
			c-0.011-0.561-0.011-1.117-0.011-1.682c-0.001-0.285-0.007-0.57-0.004-0.855c0.009-0.803,0.023-1.609,0.05-2.408
			c0.003-0.047,0.003-0.096,0.003-0.139c0.029-0.85,0.069-1.697,0.124-2.553c0.016-0.275,0.041-0.557,0.061-0.838
			c0.038-0.572,0.08-1.146,0.129-1.719c0.03-0.338,0.064-0.674,0.1-1.012c0.049-0.516,0.099-1.033,0.159-1.551
			c0.041-0.359,0.087-0.725,0.133-1.082c0.061-0.494,0.121-0.996,0.192-1.488c0.052-0.375,0.108-0.746,0.165-1.117
			c0.075-0.488,0.148-0.971,0.23-1.465c0.06-0.375,0.128-0.752,0.196-1.129c0.085-0.482,0.172-0.965,0.264-1.447
			c0.073-0.383,0.149-0.764,0.226-1.145c0.1-0.482,0.198-0.965,0.306-1.445c0.082-0.381,0.167-0.762,0.254-1.146
			c0.112-0.482,0.226-0.965,0.344-1.449c0.092-0.379,0.184-0.758,0.281-1.133c0.049-0.195,0.104-0.395,0.152-0.588
			c1.245,0.086,2.52,0.154,3.866,0.201c0,0.223,0.007,0.441,0.007,0.662C73.576,125.697,73.58,126.113,73.588,126.533z"/>
		<path fill="#39A935" d="M63.227,162.184c-2.914-1.227-5.783-2.697-8.559-4.371c-0.063-0.289-0.128-0.572-0.188-0.857
			c-0.066-0.305-0.135-0.611-0.197-0.918c-0.091-0.449-0.177-0.9-0.26-1.354c-0.059-0.299-0.114-0.592-0.169-0.891
			c-0.085-0.479-0.164-0.957-0.243-1.436c-0.044-0.273-0.091-0.549-0.136-0.822c-0.083-0.547-0.157-1.096-0.233-1.641
			c-0.028-0.209-0.061-0.422-0.087-0.635c-0.101-0.764-0.19-1.529-0.27-2.299c-0.002-0.033-0.004-0.064-0.006-0.096
			c-0.077-0.736-0.143-1.469-0.203-2.203c-0.021-0.248-0.036-0.492-0.052-0.738c-0.038-0.527-0.076-1.049-0.105-1.58
			c-0.016-0.295-0.026-0.594-0.041-0.893c-0.024-0.479-0.045-0.957-0.061-1.434c-0.011-0.324-0.018-0.645-0.024-0.969
			c-0.011-0.455-0.021-0.918-0.024-1.375c-0.003-0.334-0.003-0.672-0.003-1.006c0.003-0.451,0.003-0.9,0.009-1.352
			c0.005-0.346,0.013-0.684,0.02-1.027c0.011-0.449,0.025-0.893,0.042-1.342c0.011-0.348,0.028-0.699,0.043-1.049
			c0.022-0.443,0.047-0.891,0.072-1.34c0.023-0.35,0.041-0.699,0.066-1.049c0.032-0.449,0.069-0.902,0.104-1.355
			c0.03-0.35,0.058-0.695,0.089-1.043c0.043-0.459,0.091-0.922,0.139-1.383c0.036-0.34,0.07-0.684,0.11-1.023
			c0.055-0.479,0.114-0.957,0.176-1.436c0.041-0.328,0.081-0.652,0.125-0.98c0.011-0.07,0.022-0.143,0.031-0.213
			c4.173,0.877,8.325,1.543,12.398,1.984C62.528,136.906,61.67,149.709,63.227,162.184z"/>
		<path fill="#93C01F" d="M43.996,149.805c-0.85-8.387-0.604-17.123,0.727-25.982c0.74-1.152,1.454-2.236,2.157-3.281
			c0.886,0.23,1.801,0.459,2.736,0.684c-1.624,11.551-1.456,22.816,0.494,33.57C47.977,153.252,45.931,151.584,43.996,149.805z"/>
		<path fill="#FCEA0D" d="M34.798,132.813c-0.343,0.615-0.684,1.238-1.022,1.861c-0.13,0.242-0.26,0.488-0.389,0.729
			c-0.192,0.354-0.385,0.707-0.573,1.068c-2.042-3.219-3.806-6.598-5.265-10.105c0.446-0.619,0.895-1.236,1.345-1.85
			c0.465-0.645,0.929-1.287,1.4-1.922c0.572-0.77,1.152-1.527,1.73-2.293c0.472-0.623,0.942-1.252,1.42-1.871
			c0.583-0.752,1.171-1.49,1.757-2.24c0.48-0.605,0.958-1.219,1.443-1.82c0.593-0.736,1.194-1.461,1.794-2.189
			c0.483-0.59,0.966-1.188,1.451-1.77c0.61-0.727,1.229-1.439,1.842-2.156c0.482-0.563,0.965-1.139,1.454-1.697
			c0.631-0.725,1.272-1.436,1.91-2.15c0.474-0.531,0.95-1.074,1.429-1.602c0.676-0.746,1.358-1.473,2.041-2.201
			c0.448-0.48,0.894-0.971,1.344-1.447c0.8-0.844,1.608-1.666,2.415-2.494c0.339-0.346,0.674-0.703,1.015-1.047
			c1.148-1.158,2.305-2.303,3.465-3.426c0.352-0.342,0.709-0.67,1.063-1.006c0.814-0.782,1.633-1.562,2.457-2.326
			c0.466-0.433,0.938-0.85,1.405-1.274c0.719-0.653,1.434-1.31,2.156-1.949c0.51-0.45,1.022-0.886,1.534-1.328
			c0.689-0.599,1.378-1.201,2.072-1.787c0.531-0.449,1.068-0.885,1.603-1.329c0.679-0.56,1.359-1.127,2.041-1.678
			c0.549-0.441,1.102-0.868,1.65-1.303c0.679-0.534,1.356-1.074,2.038-1.597c0.561-0.428,1.124-0.843,1.685-1.265
			c0.678-0.512,1.36-1.025,2.044-1.523c0.569-0.417,1.143-0.819,1.713-1.227c0.561-0.397,1.119-0.798,1.684-1.189
			c1.701,0.527,3.391,1.077,5.049,1.643c-0.554,0.402-1.104,0.812-1.652,1.221c-0.013,0.01-0.029,0.023-0.046,0.033
			c-15.722,11.741-29.353,26.017-40.734,42.653c-0.014,0.021-0.029,0.043-0.044,0.066c-0.002,0-0.002,0.006-0.002,0.006
			c-0.008,0.008-0.016,0.021-0.026,0.033c-3.392,4.965-6.582,10.139-9.572,15.52C34.879,132.658,34.838,132.732,34.798,132.813z"/>
		<path fill="#F8B133" d="M25.89,121.938c-1.157-3.455-2.024-6.994-2.588-10.561c0.419-0.51,0.838-1.014,1.258-1.516
			c0.452-0.537,0.901-1.082,1.352-1.617c0.529-0.619,1.058-1.227,1.587-1.84c0.445-0.514,0.89-1.037,1.336-1.547
			c0.539-0.613,1.078-1.213,1.616-1.814c0.439-0.494,0.882-0.992,1.321-1.477c0.55-0.607,1.103-1.203,1.654-1.799
			c0.429-0.465,0.86-0.936,1.29-1.396c0.569-0.605,1.143-1.197,1.712-1.793c0.416-0.434,0.83-0.873,1.246-1.299
			c0.603-0.623,1.21-1.227,1.814-1.838c0.384-0.385,0.768-0.777,1.148-1.158c0.702-0.693,1.406-1.369,2.106-2.049
			c0.289-0.279,0.578-0.567,0.869-0.84c0.991-0.949,1.984-1.881,2.98-2.795c0.162-0.147,0.326-0.289,0.484-0.437
			c0.835-0.76,1.669-1.515,2.504-2.252c0.354-0.311,0.707-0.607,1.061-0.917c0.643-0.558,1.289-1.123,1.933-1.669
			c0.408-0.345,0.819-0.677,1.228-1.015c0.591-0.494,1.181-0.987,1.772-1.468c0.434-0.349,0.867-0.687,1.3-1.031
			c0.57-0.45,1.137-0.908,1.708-1.348c0.447-0.345,0.893-0.677,1.34-1.016c0.555-0.421,1.115-0.848,1.669-1.257
			c0.458-0.34,0.918-0.665,1.375-0.998c0.547-0.392,1.092-0.791,1.642-1.174c0.464-0.328,0.932-0.645,1.398-0.964
			c0.54-0.371,1.078-0.744,1.617-1.101c0.473-0.315,0.944-0.618,1.416-0.925c0.428-0.279,0.857-0.556,1.287-0.83
			c2.235,0.543,4.484,1.132,6.728,1.764C58.432,83.421,41.249,100.881,25.89,121.938z"/>
		<path fill="#E95A0C" d="M22.67,105.959c-0.206-2.777-0.241-5.563-0.1-8.316c0.085-1.654,0.253-3.375,0.525-5.375
			c0.288-0.318,0.58-0.637,0.869-0.951c0.264-0.288,0.526-0.58,0.79-0.867c0.368-0.397,0.738-0.791,1.107-1.186
			c0.265-0.282,0.529-0.565,0.793-0.845c0.375-0.396,0.75-0.784,1.126-1.175c0.258-0.27,0.519-0.542,0.778-0.811
			c0.383-0.393,0.762-0.779,1.146-1.167c0.257-0.259,0.51-0.52,0.767-0.776c0.401-0.403,0.804-0.797,1.204-1.192
			c0.238-0.235,0.475-0.473,0.713-0.706c0.448-0.439,0.899-0.869,1.347-1.301c0.192-0.183,0.385-0.37,0.577-0.552
			c0.64-0.612,1.28-1.213,1.925-1.806c0.136-0.125,0.271-0.248,0.406-0.371c0.508-0.468,1.017-0.935,1.528-1.392
			c0.247-0.224,0.495-0.441,0.744-0.66c0.396-0.355,0.793-0.708,1.191-1.057c0.279-0.244,0.558-0.479,0.835-0.721
			c0.371-0.318,0.742-0.641,1.11-0.955c0.289-0.242,0.579-0.48,0.866-0.722c0.362-0.303,0.724-0.606,1.084-0.903
			c0.293-0.244,0.588-0.479,0.88-0.717c0.359-0.292,0.715-0.583,1.074-0.867c0.296-0.237,0.592-0.466,0.888-0.699
			c0.356-0.28,0.713-0.561,1.07-0.838c0.296-0.227,0.592-0.453,0.89-0.678c0.355-0.271,0.714-0.544,1.072-0.812
			c0.295-0.221,0.591-0.437,0.884-0.653c0.362-0.266,0.724-0.53,1.083-0.792c0.293-0.21,0.583-0.417,0.876-0.623
			c0.26-0.184,0.519-0.369,0.778-0.551c3.767,0.553,7.57,1.238,11.372,2.036C50.581,76.604,36.42,89.691,22.67,105.959z"/>
		<path fill="#E5332A" d="M24.509,84.924c1.971-7.813,5.368-15.226,10.005-21.77c4.315,0.164,8.74,0.504,13.192,1.014
			C39.864,70.023,32.093,76.974,24.509,84.924z"/>
		<path fill="#FF35BF" d="M38.06,59.238c-0.171-0.011-0.344-0.021-0.513-0.029c0.876-1.056,1.788-2.086,2.734-3.088
			c0.297-0.016,0.597-0.034,0.895-0.048c0.406-0.021,0.811-0.042,1.218-0.061c0.417-0.017,0.839-0.034,1.26-0.049
			c0.401-0.014,0.804-0.031,1.206-0.044c0.426-0.012,0.856-0.021,1.286-0.029c0.395-0.01,0.79-0.021,1.186-0.027
			c0.442-0.004,0.883-0.006,1.328-0.011c0.383-0.001,0.767-0.007,1.151-0.007c0.461,0,0.918,0.006,1.379,0.009
			c0.367,0.003,0.736,0.003,1.103,0.007c0.491,0.008,0.983,0.021,1.472,0.033c0.336,0.006,0.674,0.012,1.01,0.021
			c0.554,0.015,1.105,0.037,1.658,0.058c0.276,0.012,0.551,0.019,0.828,0.029c0.828,0.037,1.654,0.078,2.482,0.125
			c0.448,0.027,0.896,0.056,1.348,0.084c0.147,0.011,0.294,0.021,0.442,0.032c0.306,0.021,0.612,0.042,0.92,0.063
			c0.243,0.019,0.49,0.039,0.732,0.058c0.214,0.016,0.426,0.032,0.644,0.05c0.249,0.021,0.502,0.042,0.753,0.064
			c0.212,0.019,0.426,0.036,0.64,0.056c0.244,0.021,0.491,0.045,0.735,0.069c0.223,0.022,0.446,0.042,0.671,0.064
			c0.265,0.027,0.536,0.056,0.802,0.083c0.206,0.022,0.408,0.042,0.611,0.064c0.274,0.03,0.549,0.061,0.823,0.092
			c0.203,0.022,0.407,0.044,0.614,0.069c0.279,0.033,0.563,0.068,0.844,0.102c0.199,0.024,0.396,0.049,0.596,0.073
			c0.291,0.037,0.584,0.076,0.875,0.113c0.192,0.026,0.387,0.051,0.583,0.076c0.296,0.043,0.596,0.085,0.895,0.125
			c0.191,0.031,0.38,0.054,0.571,0.083c0.295,0.042,0.594,0.087,0.887,0.131c0.2,0.029,0.396,0.059,0.593,0.09
			c0.295,0.044,0.59,0.093,0.886,0.141c0.201,0.031,0.402,0.063,0.602,0.096c0.294,0.046,0.589,0.099,0.885,0.149
			c0.207,0.035,0.408,0.069,0.613,0.105c0.303,0.052,0.608,0.109,0.913,0.165c0.197,0.034,0.394,0.068,0.591,0.106
			c0.317,0.058,0.636,0.12,0.955,0.18c0.186,0.036,0.373,0.07,0.557,0.107c0.319,0.062,0.638,0.127,0.958,0.192
			c0.19,0.04,0.376,0.076,0.567,0.115c0.317,0.065,0.635,0.134,0.953,0.201c0.191,0.042,0.385,0.081,0.577,0.125
			c0.318,0.069,0.637,0.14,0.956,0.21c0.194,0.046,0.389,0.087,0.58,0.13c0.325,0.077,0.646,0.153,0.973,0.229
			c0.188,0.046,0.378,0.088,0.569,0.135c0.331,0.08,0.662,0.163,0.993,0.244c0.185,0.047,0.367,0.09,0.551,0.136
			c0.333,0.084,0.666,0.172,0.998,0.26c0.186,0.049,0.372,0.094,0.558,0.146c0.33,0.084,0.662,0.176,0.992,0.266
			c0.188,0.053,0.378,0.103,0.566,0.157c0.333,0.092,0.665,0.187,0.996,0.281c0.189,0.053,0.376,0.107,0.566,0.161
			c0.334,0.097,0.67,0.197,1.004,0.297c0.187,0.057,0.374,0.112,0.561,0.167c0.334,0.102,0.67,0.206,1.005,0.311
			c0.188,0.059,0.375,0.116,0.563,0.175c0.336,0.108,0.674,0.217,1.01,0.327c0.187,0.064,0.373,0.121,0.56,0.183
			c0.337,0.11,0.674,0.225,1.009,0.338c0.189,0.066,0.376,0.126,0.566,0.191c0.336,0.119,0.674,0.239,1.011,0.356
			c0.186,0.066,0.374,0.131,0.561,0.2c0.337,0.12,0.676,0.246,1.015,0.37c0.187,0.07,0.373,0.136,0.56,0.207
			c0.336,0.126,0.671,0.256,1.009,0.382c0.189,0.073,0.377,0.146,0.565,0.219c0.339,0.131,0.675,0.265,1.012,0.399
			c0.189,0.075,0.375,0.151,0.562,0.227c0.336,0.135,0.671,0.273,1.008,0.415c0.188,0.08,0.381,0.153,0.566,0.235
			c0.335,0.14,0.669,0.285,1.004,0.429c0.188,0.083,0.38,0.164,0.566,0.245c0.336,0.149,0.67,0.297,1.005,0.447
			c0.189,0.083,0.378,0.169,0.568,0.256c0.331,0.148,0.663,0.304,0.996,0.459c0.191,0.09,0.383,0.177,0.572,0.267
			c0.33,0.156,0.66,0.314,0.987,0.474c0.193,0.093,0.384,0.185,0.579,0.28c0.325,0.161,0.653,0.325,0.979,0.489
			c0.194,0.096,0.389,0.192,0.583,0.291c0.325,0.166,0.65,0.336,0.974,0.505c0.196,0.101,0.389,0.201,0.583,0.301
			c0.323,0.173,0.644,0.347,0.969,0.521c0.194,0.106,0.388,0.208,0.583,0.317c0.32,0.174,0.639,0.353,0.96,0.532
			c0.195,0.112,0.393,0.219,0.587,0.331c0.315,0.179,0.632,0.364,0.949,0.546c0.197,0.117,0.396,0.229,0.593,0.346
			c0.314,0.185,0.625,0.374,0.938,0.561c0.198,0.122,0.4,0.241,0.597,0.361c0.312,0.189,0.623,0.384,0.934,0.578
			c0.197,0.123,0.395,0.245,0.594,0.371c0.308,0.197,0.614,0.393,0.92,0.593c0.202,0.13,0.401,0.258,0.601,0.389
			c0.304,0.199,0.605,0.402,0.909,0.606c0.203,0.135,0.401,0.267,0.603,0.403c0.304,0.204,0.601,0.414,0.9,0.623
			c0.201,0.138,0.404,0.276,0.608,0.42c0.293,0.208,0.591,0.42,0.884,0.633c0.205,0.147,0.405,0.292,0.606,0.439
			c0.294,0.213,0.589,0.432,0.88,0.652c0.202,0.148,0.404,0.299,0.605,0.451c0.291,0.219,0.583,0.443,0.871,0.666
			c0.202,0.157,0.401,0.313,0.604,0.47c0.287,0.226,0.572,0.454,0.859,0.684c0.201,0.16,0.402,0.319,0.604,0.483
			c0.285,0.231,0.57,0.464,0.85,0.699c0.201,0.169,0.402,0.333,0.604,0.503c0.281,0.234,0.555,0.473,0.838,0.713
			c0.201,0.173,0.402,0.347,0.604,0.521c0.275,0.238,0.547,0.484,0.824,0.728c0.201,0.181,0.402,0.36,0.605,0.542
			c0.27,0.244,0.539,0.491,0.805,0.739c0.205,0.187,0.41,0.373,0.611,0.563c0.266,0.248,0.529,0.501,0.797,0.753
			c0.201,0.194,0.406,0.385,0.604,0.583c0.264,0.255,0.521,0.512,0.781,0.769c0.205,0.202,0.406,0.401,0.607,0.602
			c0.258,0.26,0.514,0.525,0.768,0.785c0.203,0.209,0.404,0.414,0.605,0.625c0.254,0.262,0.504,0.529,0.756,0.797
			c0.201,0.215,0.402,0.43,0.602,0.645c0.248,0.27,0.496,0.539,0.742,0.811c0.199,0.225,0.4,0.445,0.604,0.67
			c0.24,0.273,0.482,0.549,0.725,0.824c0.199,0.232,0.4,0.463,0.602,0.693c0.234,0.273,0.475,0.559,0.709,0.838
			c0.199,0.236,0.4,0.473,0.6,0.715c0.23,0.281,0.465,0.568,0.695,0.855c0.199,0.244,0.395,0.488,0.594,0.732
			c0.23,0.287,0.459,0.58,0.684,0.873c0.199,0.25,0.395,0.502,0.59,0.758c0.225,0.291,0.449,0.588,0.668,0.885
			c0.135,0.174,0.264,0.352,0.396,0.527c-0.014,0.846-0.033,1.574-0.07,2.256c-0.031,0.615-0.074,1.238-0.127,1.885
			c-8.744-7.518-17.953-14.191-27.57-20.022c-0.568-0.342-1.127-0.683-1.683-1.012c-0.509-0.302-1.019-0.602-1.529-0.9
			c-0.77-0.448-1.553-0.892-2.338-1.335c-3.854-2.169-7.77-4.202-11.747-6.103c-0.001,0-0.006,0-0.006,0
			c-0.933-0.446-1.869-0.886-2.81-1.314c-0.034-0.018-0.067-0.034-0.101-0.049c-1.697-0.775-3.407-1.527-5.124-2.253
			c-0.224-0.097-0.448-0.193-0.673-0.288c-0.748-0.313-1.497-0.62-2.247-0.926c-0.511-0.206-1.024-0.408-1.538-0.611
			c-0.84-0.331-1.681-0.658-2.527-0.977c-0.731-0.279-1.465-0.556-2.196-0.824c-0.122-0.046-0.25-0.087-0.373-0.132
			c-0.223-0.082-0.447-0.17-0.672-0.25c-0.383-0.137-0.769-0.268-1.154-0.403c-0.146-0.051-0.292-0.101-0.437-0.15
			c-15.016-5.239-30.393-8.566-45.81-9.92c-0.165-0.014-0.327-0.028-0.491-0.042c-0.69-0.058-1.379-0.116-2.072-0.167
			c-0.886-0.066-1.767-0.124-2.644-0.178C38.222,59.25,38.141,59.242,38.06,59.238z"/>
		<path fill="#E84E1B" d="M137.365,107.932h-0.002c-1.213-0.072-2.432-0.154-3.652-0.25c2.631-1.76,5.193-3.641,7.674-5.633
			c2.586,1.955,5.186,4.021,7.777,6.186C145.201,108.254,141.251,108.154,137.365,107.932z"/>
		<path fill="#941B80" d="M108.432,127.164c-3.617,9.814-7.529,18.883-11.651,27.039c-1.662-2.512-3.186-5.082-4.554-7.68
			c0.22-0.289,0.438-0.588,0.657-0.883c0.249-0.332,0.498-0.668,0.748-1c0.381-0.518,0.759-1.041,1.141-1.563
			c0.237-0.328,0.475-0.65,0.714-0.982c0.416-0.578,0.833-1.164,1.252-1.756c0.197-0.275,0.396-0.553,0.595-0.834
			c0.615-0.881,1.229-1.762,1.846-2.656c0.013-0.025,0.03-0.047,0.047-0.07c0.598-0.871,1.196-1.752,1.791-2.641
			c0.2-0.299,0.397-0.602,0.598-0.896c0.414-0.625,0.828-1.248,1.242-1.883c0.234-0.352,0.464-0.711,0.701-1.068
			c0.377-0.584,0.755-1.17,1.134-1.756c0.245-0.385,0.489-0.773,0.738-1.154c0.212-0.34,0.426-0.672,0.638-1.008
			C106.846,126.637,107.633,126.902,108.432,127.164z"/>
		<path fill="#662482" d="M83.908,124.525c3.462-0.203,6.921-0.582,10.334-1.129c-2.652,3.168-5.311,6.227-7.949,9.143
			C85.384,129.865,84.587,127.186,83.908,124.525z"/>
		<path fill="#941B80" d="M87.818,136.742c0.063-0.07,0.127-0.139,0.194-0.211c0.82-0.9,1.644-1.813,2.473-2.74
			c0.116-0.131,0.235-0.266,0.354-0.4c1.714-1.926,3.431-3.91,5.151-5.941c0.124-0.146,0.25-0.293,0.374-0.443
			c0.822-0.971,1.641-1.955,2.461-2.953c0.067-0.082,0.139-0.162,0.208-0.248c1.053,0.41,2.137,0.82,3.249,1.225
			c-3.968,6.248-7.992,12.125-12.008,17.535C89.424,140.727,88.611,138.799,87.818,136.742z"/>
		<path fill="#7FB6E3" d="M91.598,74.687c5.854,2.169,11.68,4.663,17.378,7.442c-9.382,3.311-19.546,4.674-30.285,4.056
			c-0.526-0.029-1.053-0.065-1.585-0.106C81.741,82.016,86.6,78.198,91.598,74.687z"/>
		<path fill="#F8B133" d="M151.328,121.121c-0.186,0.6-0.369,1.189-0.563,1.768c-2.264-0.055-4.531-0.146-6.764-0.275l0,0
			c-10.486-0.607-20.782-2.055-30.688-4.32c2.173-0.822,4.318-1.73,6.417-2.701c0.823,0.215,1.654,0.42,2.484,0.625
			c0.396,0.104,0.787,0.209,1.185,0.305c1.348,0.326,2.702,0.641,4.063,0.939c0.184,0.039,0.371,0.072,0.557,0.113
			c1.175,0.25,2.358,0.5,3.542,0.732c0.48,0.092,0.961,0.176,1.443,0.268c0.899,0.168,1.797,0.336,2.698,0.49
			c0.557,0.098,1.117,0.186,1.674,0.275c0.836,0.141,1.67,0.271,2.502,0.398c0.598,0.09,1.191,0.172,1.783,0.258
			c0.813,0.111,1.623,0.225,2.438,0.328c0.605,0.08,1.221,0.152,1.828,0.225c0.809,0.096,1.617,0.188,2.43,0.271
			c0.615,0.066,1.229,0.129,1.842,0.186C150.576,121.045,150.949,121.086,151.328,121.121z"/>
		<path fill="#941B80" d="M68.744,38.405c7.407-2.278,15.111-3.203,23.001-2.748c0.111,0.005,0.218,0.017,0.328,0.026
			c0.015,0,0.03,0.003,0.043,0.004c0.172,0.073,0.347,0.149,0.521,0.225c0.26,0.11,0.516,0.222,0.779,0.335
			c0.215,0.098,0.438,0.199,0.658,0.295c0.263,0.121,0.527,0.239,0.796,0.363c0.227,0.104,0.458,0.213,0.685,0.319
			c0.271,0.127,0.542,0.253,0.818,0.383c0.232,0.111,0.469,0.231,0.707,0.348c0.274,0.134,0.551,0.266,0.829,0.406
			c0.243,0.122,0.491,0.248,0.735,0.374c0.282,0.144,0.562,0.285,0.849,0.433c0.249,0.13,0.502,0.265,0.753,0.397
			c0.288,0.152,0.574,0.301,0.862,0.458c0.26,0.144,0.523,0.289,0.789,0.434c0.287,0.159,0.575,0.315,0.868,0.48
			c0.268,0.149,0.537,0.306,0.806,0.459c0.294,0.17,0.588,0.334,0.885,0.51c0.278,0.161,0.556,0.328,0.833,0.493
			c0.298,0.177,0.592,0.349,0.892,0.532c0.285,0.17,0.574,0.351,0.86,0.528c0.301,0.183,0.599,0.366,0.903,0.557
			c0.286,0.181,0.578,0.37,0.868,0.555c0.306,0.196,0.611,0.39,0.922,0.591c0.293,0.192,0.592,0.394,0.887,0.59
			c0.312,0.206,0.622,0.405,0.936,0.619c0.303,0.203,0.611,0.417,0.916,0.628c0.312,0.215,0.621,0.424,0.937,0.645
			c0.312,0.219,0.63,0.449,0.946,0.675c0.313,0.221,0.619,0.438,0.933,0.665c0.323,0.234,0.652,0.481,0.979,0.719
			c0.31,0.229,0.618,0.453,0.929,0.687c0.339,0.252,0.678,0.52,1.019,0.78c0.304,0.232,0.606,0.46,0.912,0.696
			c0.352,0.274,0.707,0.559,1.061,0.838c0.298,0.236,0.596,0.466,0.897,0.71c0.375,0.301,0.754,0.613,1.129,0.922
			c0.283,0.233,0.566,0.459,0.852,0.697c0.443,0.368,0.89,0.752,1.337,1.131c0.22,0.188,0.443,0.37,0.663,0.562
			c0.672,0.576,1.349,1.166,2.023,1.771c0.117,0.102,0.232,0.211,0.347,0.312c0.563,0.504,1.128,1.014,1.694,1.534
			c0.25,0.23,0.5,0.47,0.752,0.703c0.437,0.407,0.869,0.809,1.31,1.225c0.273,0.261,0.55,0.533,0.826,0.801
			c0.416,0.4,0.833,0.796,1.25,1.207c0.29,0.289,0.583,0.587,0.874,0.878c0.406,0.401,0.811,0.8,1.217,1.211
			c0.313,0.316,0.629,0.648,0.939,0.971c0.387,0.399,0.775,0.792,1.166,1.202c0.322,0.339,0.65,0.691,0.971,1.037
			c0.383,0.406,0.76,0.808,1.145,1.222c0.332,0.358,0.664,0.731,0.996,1.095c0.377,0.417,0.756,0.828,1.135,1.251
			c0.336,0.376,0.676,0.766,1.01,1.149c0.377,0.428,0.754,0.852,1.133,1.288c0.338,0.396,0.684,0.803,1.023,1.206
			c0.375,0.438,0.748,0.873,1.121,1.32c0.348,0.415,0.693,0.841,1.041,1.261c0.373,0.451,0.74,0.896,1.115,1.358
			c0.354,0.435,0.705,0.881,1.057,1.322c0.371,0.462,0.738,0.921,1.105,1.389c0.357,0.455,0.715,0.921,1.07,1.384
			c0.324,0.423,0.652,0.839,0.979,1.266c0.143,0.589,0.279,1.184,0.41,1.78c-13.443-15.871-29.136-28.334-46.738-37.095
			C94.161,44.863,81.649,40.715,68.744,38.405z"/>
		<path fill="#662482" d="M105.689,37.968c19.133,5.285,34.918,18.891,42.945,37.138C133.058,56.564,118.035,45.073,105.689,37.968z
			"/>
		<path fill="#93C01F" d="M35.309,140.121c1.484-2.871,3.039-5.715,4.655-8.508c-0.001,0.018-0.001,0.037-0.004,0.057
			c-0.019,0.283-0.037,0.559-0.055,0.838c-0.023,0.316-0.045,0.629-0.063,0.945c-0.017,0.279-0.03,0.564-0.044,0.848
			c-0.016,0.305-0.033,0.615-0.045,0.922c-0.015,0.297-0.022,0.59-0.031,0.883c-0.013,0.295-0.025,0.59-0.032,0.883
			c-0.007,0.301-0.013,0.604-0.017,0.906c-0.005,0.285-0.012,0.572-0.014,0.852c-0.005,0.313-0.005,0.617-0.005,0.93
			c0,0.275-0.001,0.549,0,0.822c0.004,0.314,0.007,0.631,0.012,0.945c0.005,0.268,0.007,0.533,0.011,0.803
			c0.008,0.314,0.02,0.629,0.03,0.945c0.007,0.266,0.016,0.527,0.025,0.797c0.012,0.314,0.03,0.623,0.042,0.936
			c0.013,0.223,0.021,0.449,0.032,0.674C38.198,143.838,36.695,142.004,35.309,140.121z"/>
		<path fill="#E25AAB" d="M132.225,150.816c-0.004-0.432-0.011-0.863-0.019-1.295c-0.002-0.191-0.002-0.387-0.006-0.578
			c-0.015-0.902-0.041-1.809-0.075-2.725c-0.005-0.188-0.013-0.381-0.021-0.574c-0.029-0.746-0.062-1.49-0.1-2.242
			c-0.011-0.254-0.026-0.508-0.038-0.766c-0.053-0.926-0.109-1.854-0.174-2.793c0-0.008-0.004-0.014-0.004-0.02
			c-0.065-0.93-0.14-1.861-0.22-2.799c-0.024-0.264-0.048-0.533-0.073-0.799c-0.066-0.762-0.144-1.529-0.22-2.295
			c-0.022-0.205-0.042-0.406-0.063-0.604c-0.009-0.088-0.017-0.18-0.025-0.273c1.29,0.252,2.617,0.492,3.996,0.73
			c1.113,3.855,2.047,7.627,2.791,11.24C136.175,147.074,134.248,149.012,132.225,150.816z"/>
		<path fill="#F29100" d="M152.386,117.633c-9.262-0.809-18.355-2.26-27.127-4.336c0.909-0.494,1.818-1.008,2.728-1.535
			c0.105,0.014,0.214,0.018,0.325,0.031c1.372,0.146,2.753,0.275,4.136,0.393c0.114,0.006,0.224,0.018,0.337,0.025
			c1.445,0.119,2.896,0.223,4.344,0.305l0,0c0.008,0.002,0.016,0.002,0.023,0.002c1.377,0.078,2.764,0.141,4.154,0.189
			c0.473,0.016,0.955,0.023,1.436,0.031c0.922,0.029,1.844,0.057,2.771,0.068c0.568,0.01,1.139,0.006,1.705,0.006
			c0.844,0.008,1.684,0.012,2.525,0.004c0.596-0.006,1.193-0.021,1.793-0.029c0.615-0.01,1.236-0.014,1.855-0.031
			C153.136,114.309,152.804,115.924,152.386,117.633z"/>
		<path fill="#00A099" d="M136.792,100.564c-3.262,2.473-6.652,4.756-10.122,6.807c-0.002,0-0.003,0.006-0.003,0.006
			c-2.635,1.553-5.29,2.969-7.894,4.199c-4.243,2.004-8.679,3.709-13.185,5.049c-2.979,0.895-5.984,1.633-8.93,2.203
			c-5.003,0.969-10.137,1.551-15.267,1.723l0,0l0,0c-1.953,0.07-3.921,0.082-5.842,0.037l0,0c-1.884-0.041-3.606-0.119-5.227-0.225
			c-0.212-0.016-0.42-0.029-0.632-0.043c-0.351-0.027-0.701-0.053-1.044-0.086c-0.626-0.053-1.255-0.113-1.884-0.18
			c-0.458-0.047-0.916-0.098-1.377-0.152c-0.44-0.049-0.879-0.1-1.322-0.154c-0.418-0.057-0.841-0.113-1.263-0.172
			c-0.371-0.047-0.743-0.104-1.114-0.156c-1.075-0.16-2.151-0.33-3.236-0.52c-0.034-0.006-0.068-0.012-0.103-0.018
			c-0.546-0.098-1.092-0.197-1.637-0.301c-0.233-0.045-0.461-0.088-0.692-0.133c-0.574-0.113-1.146-0.227-1.72-0.344
			c-0.067-0.014-0.136-0.031-0.206-0.047c-0.629-0.131-1.26-0.27-1.891-0.41c-0.38-0.088-0.754-0.174-1.127-0.264
			c-0.264-0.061-0.532-0.127-0.799-0.188c-0.31-0.078-0.624-0.148-0.931-0.227c1.091-1.533,2.238-3.094,3.464-4.711
			c0.213,0.051,0.427,0.096,0.64,0.145c0.357,0.078,0.71,0.158,1.064,0.24c0.427,0.088,0.85,0.176,1.273,0.264
			c0.346,0.07,0.692,0.143,1.04,0.209c0.43,0.084,0.859,0.162,1.289,0.242c0.34,0.061,0.676,0.125,1.012,0.18
			c0.441,0.074,0.878,0.146,1.313,0.219c0.328,0.053,0.654,0.107,0.979,0.15c0.45,0.068,0.896,0.131,1.344,0.195
			c0.312,0.041,0.624,0.084,0.935,0.125c0.471,0.061,0.938,0.111,1.406,0.164c0.288,0.035,0.571,0.07,0.854,0.1
			c0.521,0.057,1.035,0.1,1.552,0.146c0.233,0.02,0.464,0.045,0.696,0.064c0.744,0.061,1.485,0.113,2.222,0.152
			c0.001,0,0.004,0,0.005,0c0.717,0.043,1.428,0.078,2.139,0.104c0.291,0.008,0.583,0.012,0.871,0.018
			c0.418,0.01,0.835,0.023,1.251,0.029c0.339,0.004,0.677-0.004,1.016-0.004c0.364,0,0.727,0.008,1.089,0
			c0.357-0.002,0.713-0.016,1.071-0.023c0.339-0.008,0.68-0.016,1.018-0.029c0.364-0.012,0.726-0.031,1.089-0.051
			c0.327-0.016,0.654-0.027,0.983-0.049c0.365-0.023,0.731-0.051,1.095-0.078c0.321-0.023,0.64-0.045,0.958-0.072
			c0.369-0.035,0.735-0.068,1.101-0.107c0.313-0.029,0.624-0.061,0.936-0.096c0.367-0.043,0.731-0.088,1.095-0.131
			c0.31-0.043,0.618-0.078,0.926-0.121c0.365-0.049,0.728-0.105,1.09-0.162c0.304-0.045,0.609-0.086,0.91-0.137
			c0.363-0.061,0.724-0.123,1.083-0.188c0.302-0.057,0.605-0.107,0.903-0.164c0.359-0.07,0.716-0.141,1.072-0.217
			c0.299-0.061,0.599-0.123,0.897-0.186c0.353-0.076,0.707-0.156,1.061-0.24c0.297-0.072,0.593-0.139,0.888-0.213
			c0.352-0.086,0.702-0.176,1.05-0.266c0.293-0.078,0.59-0.15,0.882-0.232c0.349-0.096,0.695-0.193,1.042-0.295
			c0.291-0.084,0.582-0.168,0.873-0.254c0.344-0.105,0.688-0.211,1.03-0.32c0.289-0.094,0.58-0.184,0.868-0.281
			c0.339-0.111,0.679-0.229,1.015-0.346c0.29-0.102,0.578-0.201,0.865-0.303c0.334-0.123,0.667-0.25,1.001-0.373
			c0.288-0.109,0.574-0.217,0.858-0.328c0.331-0.129,0.662-0.262,0.99-0.396c0.287-0.113,0.57-0.234,0.854-0.354
			c0.327-0.139,0.65-0.277,0.976-0.42c0.284-0.125,0.567-0.246,0.849-0.377c0.321-0.145,0.641-0.295,0.958-0.449
			c0.286-0.129,0.567-0.266,0.847-0.402c0.317-0.152,0.632-0.307,0.946-0.471c0.282-0.137,0.564-0.281,0.842-0.428
			c0.314-0.162,0.624-0.324,0.936-0.492c0.279-0.15,0.556-0.301,0.832-0.455c0.31-0.17,0.616-0.34,0.922-0.516
			c0.278-0.158,0.552-0.322,0.83-0.48c0.301-0.18,0.603-0.361,0.904-0.543c0.277-0.168,0.552-0.334,0.826-0.506
			c0.299-0.186,0.596-0.373,0.891-0.564c0.274-0.174,0.549-0.354,0.823-0.533c0.291-0.191,0.583-0.387,0.875-0.586
			c0.274-0.184,0.543-0.373,0.817-0.561c0.289-0.199,0.575-0.404,0.861-0.607c0.272-0.193,0.542-0.391,0.813-0.59
			c0.283-0.205,0.567-0.416,0.849-0.631c0.268-0.199,0.535-0.408,0.802-0.613c0.28-0.213,0.559-0.43,0.838-0.65
			c0.265-0.215,0.532-0.43,0.796-0.645c0.273-0.225,0.551-0.445,0.822-0.674c0.267-0.225,0.532-0.445,0.796-0.672
			c0.27-0.23,0.537-0.459,0.807-0.695c0.263-0.23,0.524-0.463,0.788-0.697c0.267-0.236,0.53-0.479,0.795-0.717
			c0.082-0.074,0.166-0.15,0.25-0.227c2.839,1.842,5.672,3.783,8.455,5.797c-0.279,0.223-0.561,0.445-0.848,0.662
			C137.066,100.354,136.929,100.457,136.792,100.564z"/>
		<path fill="#00A099" d="M126.109,91.581c-15.597,13.966-34.241,20.425-55.466,19.2c-4.885-0.281-9.939-0.98-15.071-2.074
			c1.551-1.951,3.132-3.857,4.725-5.697c0.364,0.063,0.725,0.111,1.089,0.168c0.405,0.064,0.811,0.131,1.213,0.188
			c0.576,0.086,1.148,0.156,1.72,0.229c0.37,0.047,0.744,0.098,1.113,0.141c0.633,0.074,1.264,0.141,1.893,0.201
			c0.306,0.025,0.613,0.059,0.918,0.088c0.929,0.082,1.859,0.148,2.777,0.203c0.608,0.035,1.217,0.066,1.821,0.084
			c0.208,0.01,0.412,0.014,0.62,0.021c0.399,0.012,0.797,0.023,1.192,0.031c0.243,0.006,0.482,0.006,0.723,0.008
			c0.359,0,0.718,0.008,1.076,0.008c0.254,0,0.51-0.008,0.763-0.01c0.342-0.004,0.685-0.006,1.021-0.014
			c0.265-0.008,0.525-0.018,0.789-0.023c0.33-0.012,0.66-0.021,0.99-0.037c0.266-0.01,0.534-0.027,0.798-0.041
			c0.323-0.016,0.642-0.031,0.962-0.053c0.27-0.016,0.541-0.037,0.809-0.059c0.315-0.023,0.629-0.047,0.941-0.072
			c0.271-0.023,0.541-0.049,0.813-0.076c0.309-0.031,0.619-0.057,0.928-0.092c0.271-0.027,0.541-0.063,0.812-0.094
			c0.303-0.037,0.608-0.07,0.913-0.107c0.271-0.035,0.542-0.076,0.811-0.115c0.3-0.043,0.604-0.082,0.901-0.127
			c0.272-0.043,0.542-0.086,0.81-0.129c0.298-0.051,0.595-0.096,0.895-0.148c0.269-0.045,0.536-0.096,0.802-0.146
			c0.296-0.053,0.592-0.104,0.885-0.166c0.267-0.055,0.535-0.111,0.802-0.164c0.291-0.063,0.582-0.121,0.871-0.184
			c0.268-0.061,0.536-0.121,0.802-0.184c0.286-0.064,0.575-0.135,0.861-0.205c0.267-0.064,0.531-0.131,0.799-0.199
			c0.284-0.07,0.567-0.143,0.851-0.219c0.265-0.072,0.532-0.146,0.795-0.219c0.281-0.08,0.56-0.16,0.841-0.24
			c0.264-0.074,0.527-0.158,0.791-0.236c0.276-0.084,0.555-0.168,0.832-0.254c0.265-0.084,0.524-0.168,0.787-0.256
			c0.276-0.092,0.551-0.18,0.824-0.273c0.262-0.092,0.52-0.18,0.782-0.275c0.271-0.096,0.542-0.191,0.813-0.291
			c0.26-0.094,0.52-0.193,0.78-0.291c0.266-0.104,0.536-0.205,0.803-0.309c0.26-0.102,0.517-0.205,0.774-0.311
			c0.267-0.109,0.531-0.215,0.796-0.326c0.257-0.107,0.514-0.219,0.771-0.33c0.262-0.113,0.523-0.227,0.786-0.342
			c0.255-0.115,0.509-0.232,0.762-0.348c0.261-0.119,0.521-0.24,0.78-0.363c0.253-0.119,0.508-0.242,0.761-0.365
			c0.256-0.125,0.512-0.25,0.764-0.377c0.255-0.127,0.51-0.256,0.761-0.387c0.253-0.131,0.506-0.262,0.758-0.395
			c0.25-0.133,0.5-0.266,0.75-0.402c0.249-0.137,0.5-0.273,0.745-0.414c0.253-0.139,0.502-0.277,0.752-0.422
			c0.246-0.141,0.491-0.283,0.736-0.426c0.25-0.148,0.498-0.293,0.747-0.445c0.244-0.145,0.482-0.293,0.723-0.443
			c0.248-0.152,0.497-0.307,0.744-0.463c0.24-0.154,0.478-0.305,0.716-0.459c0.244-0.16,0.495-0.32,0.739-0.484
			c0.235-0.155,0.469-0.314,0.704-0.473c0.244-0.168,0.493-0.335,0.736-0.505c0.232-0.16,0.462-0.326,0.692-0.487
			c0.247-0.176,0.491-0.35,0.734-0.528c0.068-0.048,0.135-0.094,0.204-0.143C123.72,90.115,124.905,90.833,126.109,91.581z"/>
		<path fill="#009EE2" d="M118.746,87.235c-13.839,9.593-29.807,13.935-47.518,12.917c-2.52-0.148-5.099-0.402-7.7-0.77
			c3.074-3.357,6.25-6.574,9.482-9.595c0.504,0.057,1.007,0.102,1.511,0.151c0.34,0.033,0.683,0.072,1.021,0.103
			c0.812,0.073,1.621,0.129,2.429,0.182c0.17,0.01,0.343,0.028,0.51,0.036l0,0c0.886,0.052,1.765,0.085,2.638,0.113
			c0.138,0.003,0.273,0.003,0.409,0.007c0.719,0.016,1.435,0.027,2.15,0.027c0.233,0,0.467-0.006,0.701-0.006
			c0.612-0.006,1.221-0.013,1.827-0.031c0.282-0.01,0.562-0.019,0.842-0.032c0.554-0.021,1.107-0.046,1.66-0.079
			c0.309-0.018,0.614-0.039,0.921-0.059c0.52-0.037,1.039-0.078,1.558-0.123c0.323-0.029,0.644-0.057,0.964-0.089
			c0.5-0.052,1.001-0.108,1.497-0.166c0.327-0.041,0.656-0.079,0.981-0.12c0.495-0.067,0.987-0.139,1.479-0.212
			c0.32-0.05,0.643-0.094,0.961-0.146c0.524-0.084,1.048-0.183,1.573-0.278c0.275-0.052,0.553-0.096,0.83-0.15
			c0.775-0.151,1.551-0.315,2.321-0.491c0.258-0.056,0.506-0.122,0.762-0.184c0.527-0.124,1.057-0.25,1.581-0.388
			c0.321-0.083,0.64-0.175,0.963-0.263c0.453-0.125,0.905-0.252,1.356-0.383c0.333-0.098,0.665-0.204,0.997-0.306
			c0.435-0.135,0.872-0.271,1.305-0.415c0.33-0.108,0.66-0.222,0.991-0.337c0.429-0.151,0.859-0.301,1.286-0.457
			c0.324-0.12,0.65-0.242,0.973-0.364c0.432-0.166,0.861-0.335,1.289-0.508c0.188-0.076,0.381-0.147,0.568-0.225
			C115.513,85.458,117.146,86.342,118.746,87.235z"/>
		<g>
			<path d="M11.333,87.137c-0.001-0.149,0.078-0.24,0.212-0.264c1.581-0.097,2.985-1.218,3.377-2.828
				c0.457-2.021-0.757-4.041-2.765-4.549l-7.926-1.933c-0.123-0.03-0.207-0.143-0.182-0.249c0.035-0.14,0.162-0.202,0.284-0.172
				l7.926,1.933c2.258,0.551,3.652,2.819,3.1,5.076c-0.442,1.82-2.004,3.052-3.777,3.176C11.465,87.355,11.342,87.25,11.333,87.137z
				"/>
			<path d="M18.961,72.766l-0.016,0.032c-0.061,0.13-0.189,0.15-0.304,0.097L7.63,67.776c-0.098-0.045-0.165-0.156-0.121-0.295
				l0.008-0.016l0.007-0.017l2.817-6.061c0.053-0.114,0.189-0.15,0.304-0.097c0.114,0.053,0.157,0.173,0.104,0.287l-2.733,5.882
				l5.097,2.369l2.407-5.179c0.054-0.114,0.189-0.15,0.288-0.105c0.13,0.061,0.174,0.181,0.121,0.295l-2.408,5.18l5.114,2.377
				l2.734-5.882c0.053-0.114,0.173-0.158,0.288-0.104c0.113,0.053,0.174,0.18,0.121,0.294l-2.811,6.044L18.961,72.766z"/>
			<path d="M25.849,59.88l-0.021,0.029c-0.075,0.102-0.226,0.125-0.327,0.052l-9.831-7.116c-0.102-0.074-0.126-0.225-0.052-0.328
				c0.074-0.102,0.214-0.111,0.316-0.037l9.656,6.989l3.812-5.266c0.084-0.117,0.21-0.137,0.312-0.063
				c0.102,0.074,0.136,0.211,0.052,0.327L25.849,59.88z"/>
			<path d="M34.714,48.931l-0.025,0.024c-0.092,0.087-0.245,0.083-0.332-0.009l-8.35-8.814c-0.086-0.092-0.082-0.245,0.009-0.332
				c0.092-0.086,0.231-0.07,0.318,0.021l8.202,8.658l4.722-4.472c0.104-0.099,0.231-0.096,0.318-0.004
				c0.086,0.091,0.095,0.231-0.01,0.331L34.714,48.931z"/>
			<path d="M42.888,34.182L35.83,31.63c-0.125-0.023-0.19-0.153-0.126-0.283c0.035-0.11,0.163-0.176,0.274-0.142l6.852,2.473
				l0.231-7.271c0.024-0.125,0.133-0.222,0.248-0.212c0.13-0.001,0.241,0.098,0.232,0.213l-0.28,7.521l3.324,4.906
				c0.071,0.104,0.057,0.244-0.048,0.315c-0.104,0.07-0.254,0.041-0.325-0.063L42.888,34.182z"/>
			<path d="M51.204,22.252c-0.048-0.116-0.008-0.25,0.125-0.307l0.033-0.015l2.625-1.103c1.543-0.65,3.336,0.081,3.979,1.609
				c0.446,1.063,0.242,2.203-0.417,3.049c1.612-0.347,3.293,0.49,3.949,2.051c0.755,1.793-0.065,3.838-1.858,4.593l-3.387,1.425
				l-0.033,0.015c-0.134,0.055-0.258-0.009-0.307-0.125L51.204,22.252z M56.151,25.976c1.311-0.552,1.918-2.038,1.382-3.357
				c-0.562-1.288-2.048-1.894-3.373-1.375l-2.458,1.034l1.991,4.732L56.151,25.976z M59.464,31.714
				c1.561-0.656,2.259-2.435,1.602-3.996c-0.644-1.528-2.403-2.272-3.963-1.616l-3.221,1.355l2.36,5.612L59.464,31.714z"/>
			<path d="M70.003,28.634l-0.035,0.007c-0.142,0.028-0.234-0.063-0.259-0.186L67.254,16.57c-0.021-0.105,0.027-0.226,0.165-0.272
				l0.017-0.004l0.018-0.003l6.542-1.351c0.124-0.025,0.234,0.062,0.259,0.185c0.026,0.124-0.044,0.23-0.167,0.256l-6.349,1.311
				l1.135,5.501l5.591-1.154c0.124-0.025,0.234,0.063,0.256,0.168c0.028,0.141-0.041,0.248-0.166,0.272l-5.589,1.154l1.139,5.52
				l6.349-1.311c0.123-0.025,0.229,0.044,0.255,0.168c0.025,0.123-0.041,0.248-0.164,0.273l-6.525,1.347L70.003,28.634z"/>
			<path d="M91.214,22.988l-6.305,0.027l-1.193,3.23c-0.019,0.09-0.108,0.162-0.198,0.163c-0.018,0-0.054-0.018-0.09-0.018
				c-0.109-0.054-0.163-0.18-0.11-0.306l4.486-12.126c0.037-0.107,0.127-0.162,0.235-0.145c0.09,0,0.18,0.053,0.235,0.143
				l4.592,12.086c0.055,0.126-0.016,0.252-0.124,0.307c-0.036,0-0.054,0.018-0.072,0.019c-0.09,0-0.181-0.072-0.235-0.162
				L91.214,22.988z M85.086,22.546l5.946-0.025l-3.008-7.878L85.086,22.546z"/>
			<path d="M102.573,15.798L100.11,26.96c-0.027,0.124-0.138,0.209-0.261,0.183c-0.106-0.024-0.206-0.156-0.179-0.279l2.596-11.76
				l0.012-0.053c0.016-0.07,0.065-0.133,0.131-0.174c0.138-0.043,0.257,0.001,0.309,0.105l5.63,13.078l2.444-11.075
				c0.027-0.123,0.173-0.201,0.279-0.178c0.123,0.027,0.187,0.152,0.16,0.274l-2.596,11.76c-0.027,0.123-0.138,0.209-0.261,0.183
				c-0.087-0.02-0.165-0.092-0.18-0.187c-0.018-0.005-0.018-0.005-0.015-0.022L102.573,15.798z"/>
			<path d="M126.156,32.804c0.141,0.046,0.204,0.15,0.183,0.286c-0.408,1.529,0.211,3.216,1.614,4.097
				c1.773,1.072,4.072,0.56,5.189-1.184l4.34-6.907c0.066-0.106,0.201-0.15,0.291-0.093c0.123,0.077,0.143,0.216,0.074,0.323
				l-4.34,6.906c-1.234,1.967-3.827,2.571-5.793,1.335c-1.586-0.997-2.261-2.867-1.818-4.587
				C125.908,32.861,126.045,32.777,126.156,32.804z"/>
			<path d="M145.953,35.498c0.088-0.09,0.229-0.103,0.33-0.002c0.09,0.089,0.078,0.229-0.01,0.319l-5.139,5.202
				c-1.797,1.82-1.754,4.698,0.027,6.507c1.82,1.746,4.697,1.754,6.508-0.053l5.139-5.202c0.088-0.09,0.24-0.091,0.33-0.001
				c0.076,0.076,0.092,0.241,0.002,0.331l-5.139,5.202c-1.975,1.998-5.182,1.993-7.156,0.043c-1.984-1.961-2.004-5.145-0.031-7.144
				L145.953,35.498z"/>
			<path d="M159.695,51.942l-9.73,6.013c-0.107,0.066-0.248,0.046-0.313-0.061c-0.057-0.092-0.031-0.256,0.076-0.323l10.25-6.335
				l0.047-0.029c0.061-0.038,0.141-0.045,0.217-0.027c0.127,0.069,0.178,0.187,0.139,0.294l-5.463,13.159l9.654-5.966
				c0.107-0.067,0.266-0.016,0.322,0.076c0.066,0.107,0.021,0.24-0.086,0.307l-10.252,6.336c-0.107,0.066-0.246,0.046-0.313-0.062
				c-0.047-0.076-0.049-0.181,0.01-0.259c-0.01-0.015-0.01-0.015,0.006-0.024L159.695,51.942z"/>
			<path d="M172.046,74.877c0.482,1.471,0.416,3.008-0.045,4.316c-0.053,0.13-0.178,0.209-0.285,0.169
				c-0.137-0.069-0.199-0.201-0.141-0.314c0.445-1.245,0.48-2.64,0.025-4.026c-1.035-3.166-4.404-4.943-7.502-3.928
				c-3.129,1.026-4.793,4.451-3.758,7.617c0.449,1.368,1.305,2.472,2.398,3.212c0.104,0.08,0.148,0.217,0.072,0.336
				c-0.057,0.113-0.205,0.124-0.324,0.049c-1.158-0.814-2.109-1.981-2.59-3.453c-1.105-3.428,0.703-7.108,4.057-8.207
				C167.275,69.562,170.925,71.455,172.046,74.877z"/>
			<path d="M175.06,92.514l-0.398-4.14c-0.012-0.125,0.066-0.241,0.193-0.253c0.125-0.013,0.242,0.085,0.254,0.21l0.844,8.729
				c0.012,0.143-0.086,0.242-0.211,0.256c-0.125,0.012-0.225-0.068-0.238-0.213l-0.398-4.123l-11.865,1.145
				c-0.127,0.014-0.246-0.102-0.256-0.211c-0.014-0.143,0.086-0.242,0.211-0.254L175.06,92.514z"/>
			<path d="M175.564,106.912c0.145,0.01,0.227,0.105,0.217,0.248c-0.008,0.109-0.105,0.209-0.248,0.199l-12.104-0.855
				c-0.143-0.012-0.225-0.125-0.217-0.232c0.01-0.145,0.105-0.227,0.248-0.217L175.564,106.912z"/>
			<path d="M173.214,124.012c-0.881,3.287-4.385,5.164-7.873,4.268c-3.488-0.971-5.584-4.348-4.705-7.635
				c0.881-3.287,4.385-5.166,7.887-4.246C171.998,117.348,174.095,120.723,173.214,124.012z M161.107,120.77
				c-0.762,2.984,1.152,6.145,4.365,7.023c3.24,0.848,6.494-0.928,7.289-3.902c0.803-2.992-1.129-6.156-4.365-7.023
				C165.179,116.006,161.943,117.787,161.107,120.77z"/>
			<path d="M166.597,139.047l-10.023-5.512c-0.111-0.061-0.16-0.191-0.102-0.303c0.053-0.094,0.209-0.152,0.318-0.092l10.561,5.807
				l0.047,0.025c0.064,0.035,0.109,0.102,0.131,0.176c0.002,0.145-0.074,0.246-0.188,0.266l-14.145,1.721l9.945,5.469
				c0.109,0.061,0.145,0.223,0.092,0.318c-0.061,0.109-0.199,0.137-0.309,0.076l-10.561-5.807c-0.111-0.063-0.162-0.193-0.102-0.303
				c0.043-0.08,0.135-0.133,0.23-0.121c0.01-0.014,0.01-0.014,0.025-0.006L166.597,139.047z"/>
		</g>
	</g>
</g>
</svg>
